HIERARCHY
ROOT hip
{
	OFFSET 0.000000 0.000000 0.000000 
	CHANNELS 6 Xposition Yposition Zposition Xrotation Zrotation Yrotation
	JOINT abdomen
	{
		OFFSET 0.000000 3.402643 0.000000 
		CHANNELS 3 Xrotation Zrotation Yrotation
		JOINT chest
		{
			OFFSET 0.000000 8.438565 -0.680529 
			CHANNELS 3 Xrotation Zrotation Yrotation
			JOINT neck
			{
				OFFSET 0.000000 10.207942 -0.272212 
				CHANNELS 3 Xrotation Zrotation Yrotation
				JOINT head
				{
					OFFSET 0.000000 3.130431 0.000000 
					CHANNELS 3 Xrotation Zrotation Yrotation
					End Site
					{
						OFFSET 0.000000 3.130435 0.000000 
					}
				}
			}
			JOINT lCollar
			{
				OFFSET 3.470700 6.669187 -0.816635 
				CHANNELS 3 Yrotation Zrotation Xrotation
				JOINT lShldr
				{
					OFFSET 3.198488 0.000000 0.000000 
					CHANNELS 3 Zrotation Yrotation Xrotation
					JOINT lForeArm
					{
						OFFSET 10.139888 0.000000 0.000000 
						CHANNELS 3 Yrotation Zrotation Xrotation
						JOINT lHand
						{
							OFFSET 8.370511 0.000000 0.000000 
							CHANNELS 3 Zrotation Yrotation Xrotation
							End Site
							{
								OFFSET 4.083176 0.000000 0.000000 
							}
						}
					}
				}
			}
			JOINT rCollar
			{
				OFFSET -3.470700 6.669187 -0.816635 
				CHANNELS 3 Yrotation Zrotation Xrotation
				JOINT rShldr
				{
					OFFSET -3.198488 0.000000 0.000000 
					CHANNELS 3 Zrotation Yrotation Xrotation
					JOINT rForeArm
					{
						OFFSET -10.139888 0.000000 0.000000 
						CHANNELS 3 Yrotation Zrotation Xrotation
						JOINT rHand
						{
							OFFSET -8.370511 0.000000 0.000000 
							CHANNELS 3 Zrotation Yrotation Xrotation
							End Site
							{
								OFFSET -4.083176 0.000000 0.000000 
							}
						}
					}
				}
			}
		}
	}
	JOINT lThigh
	{
		OFFSET 5.308129 -1.633274 1.361059 
		CHANNELS 3 Xrotation Zrotation Yrotation
		JOINT lShin
		{
			OFFSET -2.041588 -20.007561 0.000000 
			CHANNELS 3 Xrotation Zrotation Yrotation
			JOINT lFoot
			{
				OFFSET 0.000000 -19.190928 -1.224953 
				CHANNELS 3 Xrotation Yrotation Zrotation
				End Site
				{
					OFFSET 0.000000 -2.449906 4.627600 
				}
			}
		}
	}
	JOINT rThigh
	{
		OFFSET -5.308129 -1.633274 1.361059 
		CHANNELS 3 Xrotation Zrotation Yrotation
		JOINT rShin
		{
			OFFSET 2.041588 -20.007561 0.000000 
			CHANNELS 3 Xrotation Zrotation Yrotation
			JOINT rFoot
			{
				OFFSET 0.000000 -19.190928 -1.224953 
				CHANNELS 3 Xrotation Yrotation Zrotation
				End Site
				{
					OFFSET 0.000000 -2.449906 4.627600 
				}
			}
		}
	}
}
MOTION
Frames: 14
Frame Time: 0.011111
88.703163 51.600967 -5.691921 0.730504 8.334709 -70.785889 12.542139 -5.435318 10.656055 -26.150236 1.541199 3.248829 -14.250710 -0.975194 8.391083 11.682174 9.583813 17.244284 -10.275489 -5.709454 -1.550532 -75.729736 -19.549788 -18.202976 -57.125866 8.976151 11.139699 8.524705 12.647240 -93.020889 5.831508 6.350754 -0.460990 74.171890 21.110266 -9.909128 50.989719 -7.925629 8.559862 -8.534408 -12.637552 41.019390 -17.399035 3.251429 -6.339893 33.323891 -5.137748 -5.283489 -24.939848 -11.674756 -7.915543 -7.906133 -8.510172 -6.940938 23.846788 5.624698 4.008131 -40.302807 -10.721060 -7.789573 
88.655556 51.584427 -5.740874 0.604310 7.908762 -71.205215 12.776302 -5.731585 10.779164 -26.500975 1.377953 3.313863 -13.219204 -2.347995 6.794905 9.818443 11.311153 13.634165 -10.275489 -5.709454 -1.550532 -75.522881 -18.513630 -16.505571 -57.273739 8.991710 11.197972 8.524705 12.647240 -88.675186 5.831508 6.350754 -0.460990 74.549004 21.124111 -9.659993 50.958485 -7.919968 8.549596 -8.534408 -12.637552 41.009628 -16.678476 3.505324 -6.142593 33.196045 -5.137627 -5.252789 -25.006390 -11.797208 -8.006469 -7.312495 -8.346627 -6.866261 23.724352 5.633566 3.999291 -40.127316 -10.545691 -7.597861 
88.613701 51.569908 -5.795226 0.513657 7.525084 -71.628510 12.977345 -5.992683 10.835332 -26.861446 1.214975 3.351539 -12.092368 -2.945948 5.008632 8.160070 11.614953 9.846380 -10.275489 -5.709454 -1.550532 -75.358292 -17.585566 -15.146317 -57.359089 9.004402 11.241987 8.524705 12.647240 -84.554085 5.831508 6.350754 -0.460990 75.000237 21.166258 -9.536195 50.948841 -7.921975 8.547936 -8.534408 -12.637552 40.892437 -16.079189 3.758804 -5.839252 33.136467 -5.132261 -5.275188 -25.152937 -11.815598 -8.028961 -6.784623 -8.130827 -6.563071 23.536461 5.623139 3.961218 -40.080025 -10.499206 -7.537965 
88.583992 51.557751 -5.846542 0.390801 7.116409 -72.024765 13.253849 -6.216434 10.765024 -27.202471 1.049584 3.352737 -11.011391 -3.603522 3.323307 6.637820 12.386372 6.267966 -10.275489 -5.709454 -1.550532 -75.219627 -16.802176 -14.006427 -57.421593 9.006764 11.256436 8.524705 12.647240 -80.550186 5.831508 6.350754 -0.460990 75.465630 21.249498 -9.409831 50.948841 -7.921975 8.547936 -8.534408 -12.637552 40.716656 -15.461400 3.934185 -5.556957 33.094444 -5.157744 -5.248888 -25.297878 -11.816137 -8.039806 -6.227569 -7.983381 -6.337132 23.368151 5.658046 3.942251 -39.968948 -10.501918 -7.510124 
88.564415 51.543575 -5.888742 0.184297 6.670852 -72.381706 13.641008 -6.469614 10.578136 -27.553255 0.834542 3.329157 -10.243759 -4.621922 1.751979 5.776346 13.834307 2.875827 -10.275489 -5.709454 -1.550532 -75.067383 -16.076143 -12.971525 -57.464993 9.015298 11.278451 8.524705 12.647240 -76.624405 5.831508 6.350754 -0.460990 75.918999 21.351135 -9.191380 50.947784 -7.915823 8.540424 -8.534408 -12.637552 40.579937 -14.820095 4.012760 -5.256481 33.065788 -5.147894 -5.253279 -25.373631 -11.793144 -8.047657 -5.612784 -7.915194 -6.297714 23.146008 5.666215 3.895285 -39.721748 -10.550584 -7.430436 
88.552933 51.511166 -5.962001 -0.117860 5.730437 -72.980843 14.583982 -6.762081 10.576853 -28.206022 0.581962 3.367214 -8.501819 -5.186320 0.129530 4.066584 15.000196 -0.479598 -10.275489 -5.709454 -1.550532 -74.842285 -15.077644 -11.739636 -57.549015 9.022352 11.314487 8.524705 12.647240 -72.600960 5.831508 6.350754 -0.460990 76.527649 21.165815 -9.013688 51.011314 -7.933283 8.568474 -8.534408 -12.637552 40.599468 -13.596113 4.275347 -4.451539 33.047733 -5.132753 -5.257959 -25.495428 -11.961418 -8.165536 -4.520281 -7.721606 -6.038276 22.996983 5.653881 3.908091 -39.502758 -10.649662 -7.386384 
88.521194 51.501038 -5.975167 -0.152305 5.540256 -72.983551 14.753670 -6.580196 9.880863 -28.274841 0.367444 3.165364 -7.674396 -6.037459 -1.045987 2.825650 16.224527 -3.127790 -10.275489 -5.709454 -1.550532 -74.894020 -14.679414 -10.963405 -57.676418 9.037550 11.371162 8.524705 12.647240 -68.577522 5.831508 6.350754 -0.460990 76.784149 21.431776 -8.380781 50.959538 -7.926119 8.557110 -8.534408 -12.637552 40.511578 -13.354257 4.324687 -4.433892 33.025257 -5.157527 -5.242748 -25.492653 -11.966619 -8.169155 -4.207738 -7.633185 -6.153294 22.906820 5.653513 3.890413 -39.451992 -10.702118 -7.385889 
88.491829 51.494286 -5.983608 -0.280302 5.422377 -73.074944 14.869612 -6.583094 9.268741 -28.324070 0.232589 3.007696 -6.934987 -6.728358 -2.137175 1.769099 17.228052 -5.560503 -10.275489 -5.709454 -1.550532 -74.997795 -14.360771 -10.238037 -57.816048 9.059280 11.436440 8.524705 12.647240 -64.934952 5.831508 6.350754 -0.460990 77.045738 21.659004 -7.881003 51.000420 -7.929765 8.569040 -8.534408 -12.637552 40.404156 -13.085581 4.245307 -4.468311 33.006245 -5.151927 -5.239470 -25.557901 -11.859883 -8.119841 -3.972829 -7.670825 -6.301456 22.844362 5.662452 3.886781 -39.290047 -10.718953 -7.328297 
88.470551 51.490570 -5.992385 -0.422468 5.334974 -73.354744 14.986553 -6.641871 8.782787 -28.412176 0.082538 2.890475 -6.455489 -7.591910 -3.042306 1.194735 18.650034 -7.651096 -10.275489 -5.709454 -1.550532 -75.085915 -14.118781 -9.564163 -57.921719 9.069651 11.483085 8.524705 12.647240 -61.350964 5.831508 6.350754 -0.460990 77.349098 21.792715 -7.368457 51.106087 -7.956240 8.608232 -8.534408 -12.637552 40.482281 -12.868896 4.169074 -4.413941 33.006851 -5.142593 -5.256312 -25.677032 -11.647905 -8.007004 -3.873986 -7.755782 -6.313762 22.866936 5.653256 3.877140 -39.114319 -10.674181 -7.215066 
88.456718 51.490570 -6.003525 -0.449229 5.278405 -73.826630 15.005039 -6.634984 8.535830 -28.451359 -0.027296 2.829480 -6.188140 -8.621351 -3.756513 0.975376 20.392282 -9.367694 -10.275489 -5.709454 -1.550532 -75.285393 -13.858185 -7.497763 -57.985470 9.076408 11.505984 8.524705 12.647240 -54.036510 5.831508 6.350754 -0.460990 77.572716 21.867970 -6.820831 51.262112 -7.984503 8.671002 -8.534408 -12.637552 40.794781 -12.726545 4.206717 -4.226150 32.996964 -5.142574 -5.255442 -25.807354 -11.352177 -7.873061 -3.924845 -7.751040 -6.205828 22.904949 5.662975 3.882428 -38.908993 -10.545779 -7.038869 
88.446259 51.492599 -6.014667 -0.439469 5.294010 -74.480141 14.926600 -6.671967 8.518156 -28.441633 -0.038181 2.820391 -5.842111 -9.308683 -4.430729 0.579866 21.594667 -10.932993 -10.275489 -5.709454 -1.550532 -75.244987 -14.009720 -9.545283 -57.517857 9.020960 11.300826 8.524705 12.647240 -57.757214 5.831508 6.350754 -0.460990 77.740105 21.926844 -6.388991 51.451729 -8.029244 8.749806 -8.534408 -12.637552 41.243999 -12.659160 4.304784 -3.959899 33.007450 -5.138201 -5.255122 -25.994707 -11.023664 -7.713219 -4.059547 -7.726812 -6.057408 22.934849 5.662892 3.894761 -38.618961 -10.353209 -6.796392 
88.429375 51.488884 -6.018043 -0.456554 5.167765 -74.881104 15.002374 -6.663957 8.353229 -28.539278 -0.094533 2.785536 -5.395720 -9.647509 -5.029858 0.106946 22.328865 -12.287261 -10.275489 -5.709454 -1.550532 -75.237747 -13.948634 -10.166814 -57.348324 9.001934 11.232003 8.524705 12.647240 -58.714245 5.831508 6.350754 -0.460990 77.939835 21.891077 -6.135793 51.607788 -8.056446 8.813138 -8.534408 -12.637552 41.605328 -12.452912 4.372432 -3.873086 33.016098 -5.152174 -5.240407 -26.163052 -10.819657 -7.623632 -3.991759 -7.679115 -6.016622 22.947001 5.653818 3.893979 -38.465591 -10.160178 -6.622946 
88.413170 51.486858 -6.027158 -0.418663 5.102559 -75.315689 14.978999 -6.672975 8.241656 -28.597927 -0.104171 2.747350 -5.181014 -9.846735 -5.537496 0.056687 22.854244 -13.351530 -10.275489 -5.709454 -1.550532 -75.260971 -13.833636 -10.113286 -57.348324 9.001934 11.232003 8.524705 12.647240 -58.470100 5.831508 6.350754 -0.460990 78.135254 21.815454 -5.989753 51.734974 -8.089478 8.871633 -8.534408 -12.637552 41.829933 -12.315873 4.479677 -3.804947 33.025658 -5.152174 -5.250970 -26.375000 -10.608136 -7.531446 -4.002045 -7.602890 -5.945533 22.987236 5.653864 3.897494 -38.277958 -9.994756 -6.433807 
88.400009 51.479771 -6.036610 -0.445332 5.036235 -75.670280 15.158113 -6.186479 7.402259 -28.549965 -0.202750 2.489641 -6.018080 -10.432863 -5.527129 1.199816 23.386850 -13.451097 -10.275489 -5.709454 -1.550532 -75.559662 -14.099518 -11.551095 -57.348324 9.001934 11.232003 8.524705 12.647240 -59.339241 5.831508 6.350754 -0.460990 78.152222 21.906017 -5.099216 51.660664 -8.069040 8.833773 -8.534408 -12.637552 41.742050 -12.168550 4.518710 -3.821752 33.016338 -5.147971 -5.248966 -26.513897 -10.338547 -7.391775 -4.013340 -7.596642 -5.945592 23.068043 5.652500 3.905152 -38.074986 -9.808599 -6.225348 
